<!-- Basit LinkedIn Icon SVG - 128x128 -->
<svg width="128" height="128" xmlns="http://www.w3.org/2000/svg">
  <defs>
    <linearGradient id="grad1" x1="0%" y1="0%" x2="100%" y2="100%">
      <stop offset="0%" style="stop-color:#0077B5;stop-opacity:1" />
      <stop offset="100%" style="stop-color:#00A0DC;stop-opacity:1" />
    </linearGradient>
  </defs>
  
  <!-- Background -->
  <rect width="128" height="128" rx="20" fill="url(#grad1)"/>
  
  <!-- LinkedIn 'in' icon -->
  <rect x="30" y="75" width="18" height="40" fill="white"/>
  <rect x="30" y="60" width="18" height="12" fill="white"/>
  
  <path d="M 55 75 L 55 115 L 73 115 L 73 93 Q 73 83 83 83 Q 93 83 93 93 L 93 115 L 111 115 L 111 88 Q 111 75 98 75 Q 85 75 78 82 L 73 82 L 73 75 Z" fill="white"/>
  
  <!-- Automation Icon (Gear) -->
  <circle cx="100" cy="35" r="22" fill="#FFD700" stroke="white" stroke-width="3"/>
  <circle cx="100" cy="35" r="10" fill="white"/>
  <path d="M 100 25 L 102 20 L 98 20 Z M 100 45 L 98 50 L 102 50 Z M 90 35 L 85 33 L 85 37 Z M 110 35 L 115 37 L 115 33 Z" fill="#FFD700"/>
</svg>
